<svg width="389" height="43" viewBox="0 0 389 43" fill="none" xmlns="http://www.w3.org/2000/svg">
<path d="M1 30C1 30.66 5.95 31.99 30.28 32.995C49.6435 33.7949 83.32 32.02 102.805 31.015C122.29 30.01 126.58 29.02 168.39 27.19C210.2 25.36 289.4 22.72 327.56 21.36C365.72 20 360.44 20 351.12 20.99C328.532 23.3894 311.7 26 303.07 26.66C297.715 27.0695 290.48 28.64 255.72 30.145C220.96 31.65 158.92 33.3 126.135 34.315C91.6903 35.3814 84.72 36.33 75.895 37.16C66.2268 38.0693 57.04 40.32 40.895 41.165C35.6836 41.4378 32.68 42 32.66 42C31.36 42 37.92 42 47.55 40.845C57.18 39.69 72.36 37.38 98.495 35.2C124.63 33.02 161.26 31.04 182.935 29.525C204.61 28.01 210.22 27.02 219.05 26.015C253.262 22.1211 261.28 22 272.295 20.34C280.93 19.0387 290.3 18 315.9 14.515C333.955 12.0571 361.26 6.36001 371.635 3.84001C375.3 2.68001 378.98 1.67 382.805 1.17C384.65 1 386.3 1 388 1" stroke="#EBFE70" stroke-width="2" stroke-linecap="round"/>
</svg>
