<svg width="458" height="23" viewBox="0 0 458 23" fill="none" xmlns="http://www.w3.org/2000/svg">
<path d="M45.2413 8.6045C45.5622 8.63067 45.8831 8.65685 97.0886 8.63484C148.294 8.61283 250.374 8.54184 306.556 7.991C362.738 7.44017 369.929 6.41164 374.461 5.62636C388.311 3.22687 406.072 4.4463 415.083 4.19281C420.509 4.04017 429.612 3.74333 435.775 4.56912C436.107 4.61362 429.692 5.04195 419.321 6.30531C408.949 7.56867 394.542 9.9466 339.931 11.5212C285.32 13.0958 190.941 13.7951 132.03 15.5769C73.1194 17.3587 52.5371 20.2019 37.1209 21.274C21.7046 22.346 12.078 21.5607 6.0089 20.9041C-0.0602375 20.2474 -2.28025 19.7433 9.04461 17.1091C20.3695 14.4748 45.3065 9.72569 85.035 6.40349C124.763 3.08128 178.528 1.3299 213.765 1.04284C249.003 0.755783 264.085 1.98612 274.447 2.50846C284.81 3.03079 289.996 2.80786 301.25 2.42405C312.504 2.04024 329.668 1.50233 351.185 2.25922C372.702 3.01612 398.052 5.08413 412.221 6.40153C426.39 7.71893 428.61 8.22306 433.925 8.82306C439.24 9.42307 447.583 10.1037 456.1 11.7773" stroke="white" stroke-width="2" stroke-linecap="round"/>
</svg>
